Ziggy gets a job to be a street Santa on Christmas Eve from a crooked boss, but the magic of the season allows the lovable loser to do more good than anyone expects.

Format                                   : MPEG-4
Format profile                           : Base Media / Version 2
Codec ID                                 : mp42
File size                                : 237 MiB
Duration                                 : 24mn 21s
Overall bit rate mode                    : Variable
Overall bit rate                         : 1 360 Kbps
Encoded date                             : UTC 2012-11-07 21:58:04
Tagged date                              : UTC 2012-11-07 22:46:34
Writing application                      : HandBrake 0.9.8 2012071700

Video
ID                                       : 1
Format                                   : AVC
Format/Info                              : Advanced Video Codec
Format profile                           : Main@L3.0
Format settings, CABAC                   : Yes
Format settings, ReFrames                : 4 frames
Codec ID                                 : avc1
Codec ID/Info                            : Advanced Video Coding
Duration                                 : 24mn 21s
Bit rate mode                            : Variable
Bit rate                                 : 1 131 Kbps
Width                                    : 640 pixels
Height                                   : 416 pixels
Display aspect ratio                     : 4:3
Frame rate mode                          : Variable
Frame rate                               : 24.823 fps
Minimum frame rate                       : 6.880 fps
Maximum frame rate                       : 59.524 fps
Color space                              : YUV
Chroma subsampling                       : 4:2:0
Bit depth                                : 8 bits
Scan type                                : Progressive
Bits/(Pixel*Frame)                       : 0.171
Stream size                              : 197 MiB (83%)
Writing library                          : x264 core 120

Audio
ID                                       : 2
Format                                   : AAC
Format/Info                              : Advanced Audio Codec
Format profile                           : LC
Codec ID                                 : 40
Duration                                 : 24mn 21s
Bit rate mode                            : Variable
Bit rate                                 : 224 Kbps
Maximum bit rate                         : 291 Kbps
Channel(s)                               : 2 channels
Channel positions                        : Front: L R
Sampling rate                            : 48.0 KHz
Compression mode                         : Lossy
Delay relative to video                  : 150ms
Stream size                              : 39.0 MiB (16%)
Encoded date                             : UTC 2012-11-07 21:58:04
Tagged date                              : UTC 2012-11-07 22:46:33

Text
ID                                       : 3
Format                                   : Apple text
Codec ID                                 : text
Duration                                 : 24mn 21s
Bit rate mode                            : Constant
Bit rate                                 : 1 bps
Stream size                              : 115 Bytes (0%)
Encoded date                             : UTC 2012-11-07 21:58:04
Tagged date                              : UTC 2012-11-07 22:46:34 